<?xml version="1.0" encoding="UTF-8" standalone="no"?>
<svg
   width="1663.1602pt"
   height="555.78516pt"
   viewBox="0 0 1663.1602 555.78516"
   version="1.1"
   id="svg5"
   xmlns="http://www.w3.org/2000/svg"
   xmlns:svg="http://www.w3.org/2000/svg">
  <defs
     id="defs5">
    <linearGradient
       id="bast-brand"
       gradientUnits="userSpaceOnUse"
       x1="0" y1="277.89" x2="1663.16" y2="277.89">
      <stop offset="0" stop-color="#0090cc" />
      <stop offset="1" stop-color="#3c54a1" />
    </linearGradient>
  </defs>
  <path
     fill-rule="nonzero"
     fill="url(#bast-brand)"
     fill-opacity="1"
     d="m 767.9375,331.02341 c -1.42578,4.0313 -3.29297,7.3594 -5.6875,10.1641 -2.375,2.7539 -5.03125,4.8828 -8.11328,6.4922 -2.64063,1.375 -5.39453,2.0469 -8.44531,2.0469 H 606.5 v -64.293 h 139.19141 c 3.05078,0 5.80468,0.6719 8.42968,2.0508 3.04688,1.5898 5.65235,3.7187 7.9961,6.5234 2.47656,2.9492 4.36328,6.375 5.82031,10.457 1.47656,4.1797 2.19922,8.4766 2.19922,13.1172 0,4.8672 -0.72266,9.2617 -2.19922,13.4414 M 606.5,190.0586 h 118.30859 c 1.86719,0 3.65625,0.45703 5.41016,1.375 2.08203,1.10156 3.80078,2.49218 5.24609,4.29687 1.6875,2.12891 3.09766,4.70313 4.17969,7.65625 1.06641,2.91797 1.57422,6.01563 1.57422,9.49219 0,3.45703 -0.50781,6.55469 -1.57422,9.47266 -1.08203,2.96875 -2.47656,5.54296 -4.16406,7.64062 -1.39453,1.72266 -3.01563,3.03125 -4.96875,4 -1.86719,0.93359 -3.6875,1.35938 -5.70313,1.35938 H 606.5 Z m 206.04688,101.14451 c -2.47657,-8.3437 -5.91797,-16.0156 -10.2461,-22.78514 -4.41015,-6.91797 -9.80469,-12.98437 -16.03515,-18.05078 -0.76954,-0.62109 -1.53907,-1.22656 -2.34375,-1.81641 l -3,-2.24609 1.35937,-3.47656 c 0.49219,-1.26172 0.95313,-2.5586 1.37891,-3.85156 2.65625,-8.06641 4,-16.85157 4,-26.09766 0,-9.625 -1.58985,-18.87109 -4.72266,-27.50781 -3.11328,-8.60938 -7.42578,-16.29688 -12.83594,-22.8711 -5.62109,-6.83593 -12.34375,-12.26172 -19.98047,-16.14843 -7.90234,-4 -16.42578,-6.03125 -25.3125,-6.03125 H 560.07031 v 259.48829 h 185.6211 c 6.625,0 13.47656,-1.1289 20.3789,-3.3438 l 0.39453,-0.1289 c 7.29297,-2.5586 14.21094,-6.5742 20.49219,-11.9179 6,-5.1016 11.26172,-11.1641 15.63672,-18 4.34375,-6.8203 7.75391,-14.4766 10.13281,-22.7539 2.35938,-8.2461 3.55469,-17.0196 3.55469,-26.0821 0,-9.1015 -1.26172,-17.9687 -3.73437,-26.3789"
     id="path1"
     style="fill:url(#bast-brand);fill-opacity:1" />
  <path
     fill-rule="nonzero"
     fill="url(#bast-brand)"
     fill-opacity="1"
     d="m 935.01952,277.74611 31.211,-80.68751 c 1.1171,-2.5586 2.6406,-4.46094 4.8046,-6 l 0.5079,-0.3125 c 0.4609,-0.2461 0.8046,-0.375 1,-0.45703 l 0.9531,-0.44532 1.2265,0.0664 c 0.6407,0.0312 1.3789,0.21484 2.1641,0.50781 1.8203,0.70703 4.1328,2.09766 6.0977,6.65625 l 0.082,0.17969 31.13278,80.4922 z m 90.16408,-101.41017 -0.035,-0.082 c -4.8359,-11.26172 -11.7539,-20.16406 -20.539,-26.45703 -9.09768,-6.50781 -19.19538,-9.82031 -29.99998,-9.82031 -9.1329,0 -17.9844,2.62109 -26.3282,7.78515 -5.3945,3.29688 -10.164,7.49219 -14.1953,12.50781 -3.8203,4.72266 -7.0508,10.01954 -9.6406,15.77344 l -94.60548,223.76564 h 51.26168 l 32.9493,-72 h 121.39448 l 32.9492,72 h 51.2774 z m 0,0"
     id="path2"
     style="fill:url(#bast-brand);fill-opacity:1" />
  <path
     fill-rule="nonzero"
     fill="url(#bast-brand)"
     fill-opacity="1"
     d="m 1378.914,324.58201 c 0,10.0469 -1.621,19.6875 -4.8359,28.6367 -3.2461,9.0157 -7.7344,16.9844 -13.375,23.6875 -5.7539,6.8555 -12.6562,12.3946 -20.4922,16.4766 -8.2109,4.2617 -17.0976,6.4258 -26.4414,6.4258 h -145.1133 l -21.1484,-49.7344 h 166.2617 c 2.2461,0 4.1485,-0.4765 5.9844,-1.4609 2.3906,-1.2969 4.4922,-3.0156 6.4258,-5.2617 1.9179,-2.2305 3.3906,-4.8868 4.5234,-8.1329 1.1953,-3.3906 1.7852,-6.8671 1.7852,-10.6367 0,-3.9336 -0.5703,-7.4453 -1.7539,-10.707 -1.1446,-3.2266 -2.6875,-5.9805 -4.7032,-8.3906 -1.8867,-2.2813 -3.9492,-4 -6.2929,-5.2617 -1.8047,-0.9688 -3.7539,-1.4454 -5.9688,-1.4454 h -110.539 c -9.7383,0 -19.0352,-2.2929 -27.6407,-6.8007 -8.1797,-4.2813 -15.4101,-10.1016 -21.4414,-17.2813 -5.9179,-7.01562 -10.6562,-15.35937 -14.0664,-24.80078 -3.4101,-9.41015 -5.1484,-19.625 -5.1484,-30.34765 0,-10.48828 1.7226,-20.6211 5.1172,-30.12891 3.4257,-9.55859 8.164,-17.98437 14.0976,-25.03125 3.0156,-3.58984 6.3281,-6.83594 9.918,-9.72265 3.5742,-2.88282 7.4258,-5.41016 11.5391,-7.55469 8.6093,-4.51172 17.9023,-6.78906 27.625,-6.78906 h 140.2773 v 49.73828 h -140.2773 c -2.625,0 -5.0352,0.60547 -7.3633,1.83593 -2.7696,1.47266 -5.1289,3.41016 -7.211,5.89844 -2.164,2.59375 -3.9179,5.78906 -5.2461,9.51172 -1.3789,3.83594 -2.0507,7.83594 -2.0507,12.24219 0,4.39453 0.6718,8.39453 2.0351,12.21484 1.3438,3.75391 3.1133,6.94922 5.2617,9.52344 2.0821,2.49219 4.4414,4.42578 7.211,5.90234 2.3281,1.23047 4.7383,1.83594 7.3633,1.83594 h 110.539 c 9.3281,0 18.211,2.16406 26.4414,6.42578 7.8672,4.11719 14.8047,9.73828 20.5742,16.75391 5.6055,6.78908 10.0664,14.78908 13.293,23.73828 3.2149,8.9688 4.8359,18.6055 4.8359,28.6406"
     id="path3"
     style="fill:url(#bast-brand);fill-opacity:1" />
  <path
     fill-rule="nonzero"
     fill="url(#bast-brand)"
     fill-opacity="1"
     d="m 1663.1601,139.97657 v 50.08203 h -107.8867 v 209.75001 h -46.7187 V 190.0586 h -107.9024 v -50.08203 z m 0,0"
     id="path4"
     style="fill:url(#bast-brand);fill-opacity:1" />
  <path
     fill-rule="nonzero"
     fill="url(#bast-brand)"
     fill-opacity="1"
     d="M 232.77734,-4e-6 -1e-6,134.37891 v 268.7891 l 151.007811,87.1601 c 0,0 168.30078,-96.1875 195.5,-112.6015 2.6211,-1.5821 5.09375,-3.2774 7.41797,-5.0899 1.16406,-0.9062 2.28906,-1.8398 3.375,-2.8008 2.17578,-1.9257 4.20313,-3.9609 6.07031,-6.1015 2.80469,-3.2149 5.26172,-6.668 7.35157,-10.3555 1.41797,-2.4961 2.66406,-5.0781 3.73047,-7.7422 1.0664,-2.664 1.95703,-5.4062 2.66796,-8.2265 1.42579,-5.6368 2.14063,-11.5782 2.13282,-17.7852 0,0 -0.0312,-134.75001 -0.0352,-140.07423 -0.004,-2.10156 -0.0586,-4.25781 -0.26172,-6.43359 -0.33984,-3.62109 -1.08984,-7.29297 -2.70703,-10.83984 -1.36328,-3.01172 -3.20703,-5.66016 -5.46094,-7.89063 -1.5039,-1.48828 -3.1914,-2.78906 -5.03906,-3.88672 -2.77734,-1.64843 -5.91406,-2.83984 -9.34766,-3.52734 -1.03515,-0.20313 -2.07421,-0.34766 -3.10937,-0.46094 -0.21484,-0.0234 -0.42969,-0.0469 -0.64844,-0.0664 -1.00781,-0.0937 -2.01562,-0.14454 -3.02344,-0.14844 -0.0586,0 -0.11718,-0.0117 -0.17187,-0.0117 -0.12109,0 -0.24219,0.0156 -0.36328,0.0195 -0.91406,0.008 -1.82422,0.0508 -2.73438,0.13281 -0.15625,0.0117 -0.3164,0.0195 -0.47265,0.0352 -0.98828,0.0977 -1.97266,0.24609 -2.95313,0.42969 -0.21484,0.0391 -0.42969,0.082 -0.64453,0.1289 -0.99609,0.20313 -1.98437,0.4336 -2.95703,0.71875 -0.0234,0.008 -0.043,0.0156 -0.0664,0.0234 -0.95703,0.28125 -1.89843,0.62109 -2.83203,0.98047 -0.20312,0.082 -0.40625,0.15625 -0.60547,0.24219 -0.92187,0.375 -1.83203,0.78906 -2.72265,1.24218 -0.15235,0.0781 -0.30469,0.16407 -0.45703,0.2461 -0.8086,0.42969 -1.60547,0.88672 -2.38672,1.3789 -0.14063,0.0898 -0.28516,0.17188 -0.42578,0.26172 -0.84766,0.55078 -1.66797,1.14063 -2.47266,1.76172 -0.17578,0.13672 -0.35156,0.27735 -0.52734,0.41797 -0.8125,0.65625 -1.61329,1.33203 -2.375,2.0625 l -43.34766,41.50781 h -96.65622 l -43.36719,-41.50781 c -0.76172,-0.73047 -1.55859,-1.40625 -2.37109,-2.0625 -0.17578,-0.14062 -0.34766,-0.28125 -0.52344,-0.41797 -0.80469,-0.62109 -1.62891,-1.21094 -2.47266,-1.76172 -0.14062,-0.0898 -0.28125,-0.17187 -0.42187,-0.25781 -0.78516,-0.49609 -1.58203,-0.95703 -2.39844,-1.38672 -0.14844,-0.0781 -0.29297,-0.16406 -0.44531,-0.23828 -0.89453,-0.45703 -1.80469,-0.87109 -2.73047,-1.25 -0.19922,-0.082 -0.39453,-0.15625 -0.59375,-0.23437 -0.94141,-0.36719 -1.89453,-0.70704 -2.86328,-0.99219 -0.0117,-0.004 -0.0234,-0.008 -0.0391,-0.0117 -0.97657,-0.28906 -1.96875,-0.51953 -2.96875,-0.72656 -0.21094,-0.043 -0.42188,-0.0859 -0.63282,-0.125 -0.98437,-0.1836 -1.96875,-0.33203 -2.96484,-0.42969 -0.15234,-0.0156 -0.30859,-0.0234 -0.46094,-0.0352 -0.91015,-0.082 -1.82812,-0.125 -2.74609,-0.13281 -0.11719,-0.004 -0.23828,-0.0195 -0.35938,-0.0195 -0.0547,0 -0.11328,0.0117 -0.17187,0.0117 -1.00781,0.004 -2.01563,0.0547 -3.02734,0.14844 -0.21485,0.0195 -0.42969,0.043 -0.64844,0.0664 -1.03516,0.11328 -2.07422,0.25781 -3.10547,0.46094 -4.57422,0.91406 -8.62109,2.72656 -11.984381,5.31641 -3.36328,2.58984 -6.03906,5.95312 -7.86328,9.96875 -1.29687,2.83984 -2.03515,5.75781 -2.44922,8.66796 -0.41406,2.91016 -0.50781,5.8125 -0.50781,8.625 -0.004,3.17188 0.008,143.16013 0.0977,144.67973 0.4375,7.5898 1.99219,14.7578 4.65625,21.414 1.0664,2.6602 2.30859,5.2422 3.72656,7.7344 1.39844,2.457 2.95703,4.8125 4.67188,7.0625 1.714841,2.2461 3.585931,4.3906 5.609371,6.4258 3.03516,3.0508 6.41406,5.8555 10.12891,8.4023 1.23437,0.8477 2.51172,1.668 3.82031,2.4571 3.20312,1.9336 6.41797,3.8593 9.64062,5.7734 9.65625,5.75 19.35547,11.4062 28.86329,16.8945 l 41.82031,-24.5586 c -6.77735,-3.8867 -13.76953,-7.9062 -20.89063,-12.0195 -7.12109,-4.1133 -14.36718,-8.3203 -21.64843,-12.5703 -4.85547,-2.8359 -9.72657,-5.6914 -14.58204,-8.5547 -1.75,-1.0312 -3.33203,-2.1289 -4.74609,-3.2969 -4.71875,-3.8984 -7.60156,-8.5859 -8.71484,-14.1718 -0.11328,-0.5547 -0.20703,-1.125 -0.28516,-1.6993 -0.15234,-1.1523 -0.23437,-2.3437 -0.24609,-3.5664 0,-0.1914 -0.004,-0.4023 -0.004,-0.6367 -0.004,-0.4687 -0.008,-1.0273 -0.008,-1.668 -0.0312,-6.4023 -0.1875,-115.94137 -0.1875,-115.94528 1.8164,1.73829 39.54687,37.875 39.54687,37.875 h 130.34794 c 0,0 39.11328,-37.47265 39.50391,-37.84765 0.008,-0.008 0.0195,-0.0195 0.0273,-0.0273 0.004,2.26172 -0.15625,113.68748 -0.19922,118.24998 -0.082,9.8047 -4.66406,17.2422 -13.98828,22.7344 -7.6875,4.5313 -172.28516,99.793 -172.28516,99.793 L 41.457029,379.23831 V 158.3125 L 232.77734,47.863276 424.09375,158.3125 v 220.92581 l -172.08203,99.3437 c -5.74219,-3.0547 -12.28125,-4.7812 -19.23438,-4.7812 -7.60937,0 -14.73828,2.0742 -20.84765,5.6953 -1.10938,0.6562 -2.1875,1.3672 -3.22656,2.1211 -0.52344,0.3789 -1.03125,0.7695 -1.53516,1.1719 -3.50781,2.8086 -6.54297,6.1875 -8.96875,9.9882 -1.03906,1.6329 -1.96875,3.3399 -2.77344,5.1172 -2.14453,4.7344 -3.41797,9.9492 -3.60937,15.4375 -0.0156,0.1836 -0.0156,0.3672 -0.0156,0.5469 -0.0156,0.3008 -0.0156,0.6133 -0.0156,0.9141 0,10.6093 4.03125,20.2812 10.64843,27.5625 0.44141,0.4843 0.89454,0.9609 1.35938,1.4218 2.78125,2.7813 5.96094,5.168 9.44531,7.0586 5.8086,3.1563 12.46485,4.9493 19.53906,4.9493 22.63672,0 40.99219,-18.3555 40.99219,-40.9922 0,-0.3008 0,-0.5977 -0.0156,-0.8789 l 191.7968,-110.7461 v -268.7891 z m 0,0"
     id="path5" />
</svg>
